<svg width="234" height="198" viewBox="0 0 234 198" fill="none" xmlns="http://www.w3.org/2000/svg">
<path d="M120.286 192.24C172.405 192.24 214.656 150.862 214.656 99.8203C214.656 48.7784 172.405 7.40085 120.286 7.40085C68.1667 7.40085 25.9156 48.7784 25.9156 99.8203C25.9156 150.862 68.1667 192.24 120.286 192.24Z" fill="white" stroke="black" stroke-width="2.62" stroke-linecap="round" stroke-linejoin="round"/>
<path d="M120.286 187.96C169.994 187.96 210.291 148.498 210.291 99.8203C210.291 51.1423 169.994 11.6809 120.286 11.6809C70.5776 11.6809 30.2811 51.1423 30.2811 99.8203C30.2811 148.498 70.5776 187.96 120.286 187.96Z" fill="white" stroke="black" stroke-miterlimit="10"/>
<path d="M95.3193 26.3368C94.9748 27.8566 94.4138 29.3277 93.6506 30.7117C93.5197 30.9342 93.3545 31.138 93.1603 31.3169C94.394 28.8305 93.1603 25.0316 90.6059 24.7546C90.2595 24.7186 89.9088 24.7472 89.5746 24.8386C89.2404 24.9301 88.9295 25.0825 88.6604 25.2868C88.6925 25.1598 88.7137 25.0305 88.7237 24.9004L87.0867 25.1775C86.1851 30.8867 85.505 36.6907 84.9119 42.4656L86.5489 42.1229C86.8573 39.1552 87.1895 36.173 87.5533 33.2054C88.2586 33.4428 89.0112 33.5373 89.7597 33.4825C90.6549 33.419 91.516 33.1388 92.2561 32.6702C92.9963 32.2017 93.5891 31.5613 93.9749 30.8138C94.756 29.3978 95.2898 27.8771 95.5565 26.3076L95.3193 26.3368ZM87.6165 32.7533C87.9012 30.4784 88.2334 28.218 88.5735 25.9795C89.1666 25.4181 89.8862 25.0025 90.4556 25.44C92.0373 26.6358 92.6937 32.7314 89.8072 33.096C89.0576 33.1467 88.306 33.0291 87.6165 32.7533Z" fill="black"/>
<path d="M105.584 23.8796C105.323 24.791 103.212 28.8086 101.915 28.9836C101.825 28.9978 101.733 28.9919 101.647 28.9665C101.56 28.9412 101.481 28.897 101.417 28.8378C100.278 27.7587 102.049 23.7338 102.611 22.4213H100.958L100.705 23.0484C100.143 22.0713 99.2734 21.8598 97.9369 22.3192C93.2868 23.916 91.6103 32.9939 96.7665 30.8721C97.8767 30.3414 98.7967 29.526 99.4158 28.5243C99.6689 29.8367 100.823 30.3471 101.939 29.7055C103.71 28.7211 105.521 25.0171 105.822 23.9452L105.584 23.8796ZM99.3842 27.7441C98.8172 28.8749 97.8683 29.806 96.6795 30.3982C94.0302 31.2221 95.517 24.2223 98.2612 22.7786C98.4475 22.635 98.6719 22.5398 98.9114 22.5026C99.1509 22.4655 99.3968 22.4877 99.6238 22.5672C99.8508 22.6466 100.051 22.7803 100.203 22.9546C100.356 23.1288 100.455 23.3374 100.491 23.5588C99.909 24.8984 99.5362 26.3076 99.3842 27.7441Z" fill="black"/>
<path d="M110.472 23.289C110.187 24.0837 108.265 26.993 106.913 27.7951C106.549 27.992 106.122 28.1451 105.845 27.7951C105.197 26.993 106.454 23.4786 107.569 20.8099L109.293 20.5255L109.214 20.0734L107.791 20.3068C108.321 19.1401 108.779 18.1849 108.993 17.7912L107.356 17.6235C106.838 18.5968 106.376 19.5947 105.972 20.613L104.778 20.7224V21.189C105.086 21.189 105.418 21.138 105.742 21.0869C104.493 24.1348 103.259 28.0576 104.651 28.7649C105.442 29.1586 106.415 28.7211 107.024 28.2618C108.57 26.8732 109.806 25.2183 110.661 23.3911L110.472 23.289Z" fill="black"/>
<path d="M111.334 20.6349C110.543 21.9401 107.696 26.6431 109.752 27.8607C110.003 27.9725 110.277 28.036 110.555 28.0472C110.834 28.0585 111.112 28.0174 111.373 27.9264C113.263 27.2774 115.683 23.9015 116.118 22.8952L115.921 22.8369C115.501 23.6973 112.757 27.2993 111.397 27.2118C111.305 27.2081 111.217 27.1827 111.139 27.138C111.061 27.0933 110.998 27.0308 110.954 26.9566C110.068 25.6514 112.188 22.0859 112.963 20.8901L111.334 20.6349ZM113.232 19.8474C113.373 19.8364 113.511 19.7997 113.637 19.7394C113.763 19.6791 113.875 19.5964 113.966 19.4961C114.057 19.3958 114.126 19.2798 114.168 19.1549C114.21 19.03 114.225 18.8986 114.212 18.7683C114.198 18.6404 114.155 18.5166 114.088 18.4042C114.02 18.2918 113.928 18.1931 113.818 18.1141C113.708 18.0352 113.582 17.9775 113.447 17.9445C113.313 17.9116 113.172 17.9041 113.034 17.9224C112.889 17.9246 112.746 17.9544 112.614 18.0099C112.482 18.0654 112.364 18.1456 112.267 18.2452C112.17 18.3449 112.097 18.4619 112.052 18.589C112.006 18.716 111.99 18.8504 112.004 18.9835C112.017 19.1167 112.061 19.2458 112.131 19.3627C112.201 19.4797 112.297 19.582 112.413 19.6631C112.528 19.7442 112.66 19.8025 112.801 19.8342C112.942 19.8659 113.089 19.8704 113.232 19.8474Z" fill="black"/>
<path d="M118.095 18.5276C116.648 20.0443 119.226 23.6317 118.222 25.892C118.066 26.1896 117.829 26.4449 117.534 26.6328C117.24 26.8208 116.897 26.9351 116.54 26.9644C116.183 26.9938 115.824 26.9373 115.498 26.8005C115.172 26.6636 114.889 26.4511 114.679 26.1837C114.494 25.916 114.394 25.6061 114.389 25.2887C114.385 24.9714 114.476 24.6591 114.654 24.3872C114.831 24.1152 115.088 23.8943 115.394 23.7492C115.7 23.6042 116.044 23.5407 116.387 23.566V23.3765C114.015 23.4567 113.429 25.2431 114.276 26.5191C115.399 28.2472 118.079 27.8316 119.392 26.643C121.551 24.74 118.72 21.0359 119.503 18.8558C119.584 18.5955 119.762 18.3695 120.004 18.2165C120.246 18.0635 120.539 17.9931 120.832 18.0172L120.871 17.5579C120.36 17.5248 119.847 17.5944 119.368 17.7618C118.889 17.9292 118.454 18.1905 118.095 18.5276Z" fill="black"/>
<path d="M123.718 18.5641C122.136 19.9859 124.509 23.7265 123.346 25.9285C123.168 26.2152 122.911 26.4541 122.602 26.6219C122.293 26.7897 121.941 26.8807 121.583 26.8858C121.224 26.891 120.87 26.8102 120.555 26.6513C120.241 26.4924 119.976 26.2609 119.788 25.9795C119.622 25.7024 119.544 25.3881 119.561 25.0721C119.579 24.756 119.692 24.4508 119.887 24.1908C120.083 23.9308 120.354 23.7264 120.669 23.6005C120.984 23.4747 121.33 23.4324 121.67 23.4785V23.289C119.258 23.2161 118.586 24.966 119.353 26.2931C120.349 28.0941 123.054 27.8461 124.446 26.7451C126.723 24.9952 124.153 21.1088 125.086 18.987C125.186 18.7342 125.38 18.5222 125.633 18.3887C125.887 18.2552 126.183 18.2088 126.47 18.2579L126.541 17.7912C126.038 17.7273 125.526 17.7631 125.039 17.8964C124.552 18.0297 124.102 18.2573 123.718 18.5641Z" fill="black"/>
<path d="M135.557 24.1275C133.746 26.0233 130.179 28.2836 128.226 27.0003C127.657 26.6503 127.815 25.7389 128.345 24.7691C130.029 24.7691 132.354 24.1567 133.437 23.0411C134.521 21.9255 134.228 20.6786 132.409 20.4307C128.337 19.9057 123.781 26.7233 127.554 27.7878C130.25 28.568 133.801 26.4097 135.763 24.2369L135.557 24.1275ZM132.346 21.0797C133.54 20.7515 134.062 21.8088 133.137 22.6984C132.212 23.5879 130.179 24.1567 128.685 24.2879C129.57 22.8734 131.144 21.4151 132.346 21.0797Z" fill="black"/>
<path d="M142.667 25.8264C141.986 26.5045 138.143 29.0419 136.941 28.5607C136.851 28.5279 136.772 28.4721 136.715 28.3998C136.657 28.3275 136.623 28.2417 136.617 28.1524C136.284 27.0368 138.198 25.2358 139.614 24.0473C140.769 23.0848 138.151 23.1431 136.988 22.1734C138.356 20.9265 138.246 20.0661 137.716 19.687C137.51 19.5822 137.281 19.5226 137.046 19.513C136.811 19.5033 136.577 19.5439 136.362 19.6314C136.147 19.7189 135.956 19.851 135.806 20.0175C135.655 20.184 135.548 20.3803 135.494 20.5911C135.459 20.9278 135.513 21.2672 135.65 21.5807C135.788 21.8941 136.006 22.1725 136.284 22.3921C135.676 23.0046 134.916 23.6608 134.371 24.1494L134.56 24.3098C135.146 23.7775 135.889 23.1942 136.545 22.6182C136.967 22.9673 137.448 23.2505 137.969 23.4567C136.261 24.9587 134.015 27.2628 135.193 28.619C135.384 28.8046 135.615 28.9515 135.871 29.0507C136.127 29.1498 136.402 29.199 136.68 29.1951C138.704 29.1951 142.105 26.7451 142.896 25.9504L142.667 25.8264ZM136.158 20.7224C136.169 20.5894 136.219 20.4616 136.303 20.353C136.387 20.2445 136.502 20.1592 136.635 20.1066C136.767 20.054 136.913 20.036 137.057 20.0545C137.2 20.0731 137.335 20.1276 137.447 20.212C137.7 20.4672 137.668 20.9411 136.656 21.9619C136.346 21.5995 136.172 21.1545 136.158 20.6932V20.7224Z" fill="black"/>
<path d="M144.446 23.7338C143.165 24.616 138.665 27.8243 140.049 29.7419C140.227 29.9481 140.448 30.119 140.7 30.2443C140.951 30.3696 141.227 30.4468 141.512 30.4711C143.505 30.6169 147.103 28.4659 147.926 27.7222L147.767 27.5909C147.04 28.218 143.022 30.4273 141.828 29.8586C141.747 29.8154 141.677 29.7554 141.625 29.6833C141.573 29.6112 141.54 29.5289 141.528 29.443C141.251 27.9045 144.652 25.4618 145.846 24.6671L144.446 23.7338ZM146.51 23.7338C146.64 23.7804 146.78 23.8016 146.92 23.796C147.06 23.7904 147.197 23.7582 147.322 23.7013C147.448 23.6444 147.559 23.5642 147.649 23.4656C147.74 23.367 147.807 23.2523 147.846 23.1286C147.925 22.8762 147.893 22.6055 147.757 22.3748C147.621 22.1442 147.392 21.9723 147.119 21.8963C146.991 21.8492 146.854 21.8269 146.716 21.8306C146.579 21.8344 146.444 21.8642 146.319 21.9182C146.194 21.9723 146.083 22.0493 145.992 22.1446C145.901 22.24 145.833 22.3515 145.79 22.4723C145.707 22.7305 145.736 23.0083 145.87 23.2475C146.004 23.4867 146.234 23.6688 146.51 23.7556V23.7338Z" fill="black"/>
<path d="M154.529 30.3325C152.291 31.7179 148.25 33.0158 146.7 31.295C146.241 30.8138 146.629 29.968 147.388 29.1659C149.025 29.5669 151.429 29.5742 152.765 28.7576C154.102 27.9409 154.134 26.6649 152.441 25.9795C148.637 24.4556 142.469 29.9242 145.846 31.8929C148.218 33.3075 152.244 32.1117 154.703 30.493L154.529 30.3325ZM152.212 26.592C153.454 26.592 153.675 27.7514 152.552 28.3493C151.429 28.9472 149.302 29.0784 147.807 28.7795C149.064 27.6347 150.97 26.6139 152.212 26.592Z" fill="black"/>
<path d="M56.8056 147.893L56.3469 148.199C55.1239 148.054 53.9116 147.84 52.717 147.558C51.8014 147.33 50.9216 146.994 50.0994 146.559C49.4175 146.198 48.8334 145.699 48.3912 145.1C48.0679 144.667 47.8668 144.165 47.8059 143.642C47.7527 143.158 47.8574 142.671 48.1065 142.242C48.4069 141.773 48.8111 141.368 49.2927 141.054C49.7432 140.766 50.2323 140.533 50.7478 140.361C51.3302 140.177 51.9319 140.05 52.543 139.982C53.2386 139.908 53.9392 139.884 54.6387 139.909C55.4296 139.909 56.2204 140.004 57.1141 140.098C57.9695 140.204 58.8153 140.367 59.6447 140.587C60.3016 140.759 60.9417 140.981 61.5585 141.25C62.0175 141.459 62.4566 141.703 62.8713 141.98C63.1743 142.183 63.4411 142.429 63.6622 142.709C63.814 142.912 63.894 143.154 63.8915 143.401C63.9031 143.66 63.8256 143.915 63.6701 144.131C63.4938 144.374 63.2715 144.587 63.0137 144.758C62.3823 145.149 61.6465 145.374 60.8863 145.407C59.962 145.487 59.0306 145.47 58.1105 145.356C57.2553 145.252 56.4113 145.081 55.5877 144.845C55.0936 144.75 54.6401 144.525 54.2829 144.196C54.1838 144.045 54.1473 143.867 54.1801 143.693C54.1877 143.606 54.2148 143.522 54.2598 143.445C54.3047 143.369 54.3664 143.302 54.441 143.248C54.8231 143.043 55.2682 142.961 55.7064 143.015C56.266 143.031 56.8224 143.1 57.3671 143.219C57.6802 143.249 57.9825 143.341 58.2529 143.489C58.2529 143.489 58.2529 143.54 58.2529 143.555C58.171 143.594 58.0829 143.621 57.9919 143.635L57.7309 143.642C57.7309 143.642 57.6835 143.693 57.7309 143.722C58.0754 143.872 58.4494 143.957 58.8302 143.97C59.5307 144.047 60.2371 144.069 60.9417 144.036C61.4978 144.046 62.0459 143.912 62.5234 143.649C62.6405 143.581 62.7295 143.478 62.7764 143.358C62.7897 143.302 62.7894 143.245 62.7758 143.189C62.7621 143.134 62.7353 143.082 62.6973 143.037C62.2146 142.564 61.5846 142.24 60.8942 142.111C59.7782 141.793 58.6314 141.576 57.4699 141.462C56.2324 141.33 54.9826 141.33 53.7451 141.462C52.7523 141.523 51.7934 141.819 50.9614 142.322C50.6227 142.537 50.337 142.815 50.1231 143.139C49.9413 143.401 49.8554 143.711 49.8779 144.021C49.8931 144.353 50.0111 144.675 50.218 144.947C50.8139 145.717 51.6376 146.312 52.5905 146.661C53.9379 147.223 55.3528 147.637 56.8056 147.893Z" fill="black"/>
<path d="M58.8302 147.937C59.8467 148.034 60.8399 148.28 61.7721 148.666C62.395 148.902 62.9598 149.252 63.4328 149.694C63.5071 149.794 63.5407 149.916 63.5277 150.037C63.519 150.172 63.4869 150.305 63.4328 150.43C63.389 150.519 63.3332 150.602 63.2668 150.678C63.2367 150.711 63.196 150.735 63.1505 150.746C63.1051 150.756 63.0571 150.753 63.0137 150.737C62.8696 150.686 62.7338 150.618 62.6104 150.533C62.5515 150.644 62.4987 150.759 62.4522 150.875C62.3889 151.014 62.3178 151.116 62.2782 151.196C62.2432 151.264 62.195 151.326 62.1359 151.378C61.8762 151.501 61.5892 151.566 61.2976 151.568C60.8389 151.568 60.5068 151.626 60.2932 151.648C60.0709 151.689 59.867 151.791 59.708 151.94C59.635 151.982 59.5733 152.039 59.5274 152.107C59.4815 152.174 59.4525 152.25 59.4426 152.329C59.4328 152.408 59.4423 152.488 59.4704 152.563C59.4985 152.639 59.5446 152.707 59.6052 152.764C60.1912 153.187 60.9094 153.425 61.6535 153.442L61.258 153.77C59.1307 153.719 57.8575 153.464 57.4541 152.997C57.3893 152.934 57.3419 152.857 57.3157 152.773C57.2896 152.689 57.2855 152.601 57.3039 152.516C57.3883 152.316 57.5272 152.141 57.7072 152.005C58.2396 151.615 58.8455 151.318 59.4945 151.13C58.2608 151.094 57.375 151.05 56.8136 151.006C56.4172 151.011 56.0333 150.878 55.738 150.635C55.6888 150.549 55.6586 150.455 55.6491 150.359C55.6396 150.263 55.651 150.165 55.6827 150.073C55.7353 149.76 55.8365 149.456 55.9832 149.169C56.147 148.857 56.3754 148.577 56.6554 148.345C56.817 148.198 57.0008 148.072 57.2011 147.973C57.3961 147.895 57.6053 147.85 57.8179 147.842C58.1571 147.854 58.4952 147.886 58.8302 147.937ZM62.1833 150.365C61.1175 149.845 59.9965 149.427 58.8381 149.118C58.5557 149.023 58.2523 148.993 57.9544 149.031C57.6565 149.069 57.3734 149.174 57.1299 149.337C57.0122 149.436 56.9156 149.555 56.8452 149.687C56.821 149.736 56.8119 149.791 56.8188 149.845C56.8258 149.899 56.8486 149.95 56.8847 149.993C56.9704 150.072 57.0765 150.13 57.1932 150.161C57.8657 150.383 58.5743 150.499 59.2889 150.503C60.2556 150.502 61.2216 150.456 62.1833 150.365Z" fill="black"/>
<path d="M66.5645 158.152L66.1612 158.553C65.3923 158.636 64.6175 158.663 63.8441 158.633C63.4226 158.657 63.0064 158.538 62.6736 158.298C62.482 158.11 62.3554 157.874 62.3098 157.62C62.2635 157.325 62.2635 157.025 62.3098 156.73C62.3968 156.402 62.5234 156.001 62.7132 155.454C62.2466 155.505 61.8353 155.556 61.4557 155.622L60.6649 155.717C60.6158 155.728 60.5646 155.728 60.5152 155.718C60.4659 155.708 60.4197 155.687 60.3802 155.658C60.3329 155.595 60.3076 155.52 60.3076 155.443C60.3076 155.366 60.3329 155.291 60.3802 155.228C60.516 154.99 60.6893 154.771 60.8942 154.579C61.2426 154.235 61.6357 153.931 62.0647 153.675C62.483 153.433 62.9285 153.232 63.3933 153.077C63.9242 152.895 64.4722 152.758 65.0303 152.669C65.6472 152.545 66.3194 152.45 67.0311 152.348C68.0197 152.231 68.8421 152.137 69.5064 152.107C70.0327 152.065 70.5619 152.065 71.0881 152.107C71.4006 152.126 71.6979 152.239 71.9343 152.428C71.9771 152.46 72.0117 152.5 72.0355 152.545C72.0593 152.591 72.0716 152.64 72.0716 152.691C72.0716 152.741 72.0593 152.791 72.0355 152.837C72.0117 152.882 71.9771 152.922 71.9343 152.953C71.0898 153.263 70.1991 153.452 69.2929 153.515C67.6638 153.733 65.3387 153.974 62.4522 154.244L61.9461 154.754C63.3921 154.678 64.8417 154.678 66.2877 154.754C67.0043 154.719 67.7126 154.909 68.2965 155.294C68.3586 155.362 68.3978 155.445 68.409 155.533C68.4203 155.621 68.4031 155.71 68.3597 155.79C68.2827 156.016 68.1501 156.223 67.9722 156.395C67.7679 156.59 67.5217 156.743 67.2492 156.845C66.9768 156.946 66.6843 156.994 66.3905 156.985C65.48 156.954 64.5757 156.832 63.6938 156.621C63.6396 156.861 63.6183 157.106 63.6305 157.35C63.6382 157.521 63.7175 157.683 63.852 157.802C64.0019 157.935 64.1875 158.028 64.3897 158.072C64.6112 158.116 64.8748 158.152 65.1806 158.181C65.5206 158.123 65.9635 158.145 66.5645 158.152ZM63.8678 156.162C64.2076 156.214 64.5514 156.241 64.8959 156.242C65.3064 156.257 65.7176 156.23 66.1217 156.162C66.414 156.13 66.6894 156.018 66.9125 155.841C66.9758 155.775 66.9837 155.717 66.9125 155.658C66.5438 155.443 66.1151 155.332 65.6788 155.338C64.9465 155.264 64.2067 155.284 63.4803 155.396C63.6862 155.612 63.8207 155.877 63.8678 156.162Z" fill="black"/>
<path d="M67.8615 159.603L67.7271 159.764C67.54 159.969 67.4316 160.225 67.4186 160.493C67.4187 160.609 67.4463 160.725 67.4995 160.83C67.5528 160.936 67.6305 161.03 67.7271 161.105C67.9596 161.285 68.2283 161.422 68.5179 161.506C68.8492 161.59 69.188 161.646 69.5302 161.674C69.894 161.674 70.321 161.674 70.9141 161.674L70.582 162.068C69.7529 162.228 68.9057 162.294 68.0592 162.264C67.4374 162.237 66.8426 162.022 66.3668 161.652C66.182 161.505 66.0365 161.321 65.9418 161.113C65.8472 160.906 65.8059 160.681 65.8212 160.456C65.8837 159.915 66.1269 159.406 66.5171 158.998C66.8688 158.575 67.3353 158.246 67.8694 158.043C68.5173 157.835 69.2003 157.736 69.886 157.751C70.3989 157.738 70.911 157.797 71.4044 157.926C71.7896 158.018 72.1467 158.19 72.4483 158.429C72.6329 158.561 72.7594 158.75 72.8042 158.961C72.8275 159.06 72.8254 159.162 72.7979 159.26C72.7704 159.357 72.7184 159.447 72.6461 159.523C72.3956 159.801 72.0495 159.991 71.6654 160.062C71.1452 160.165 70.6089 160.177 70.0838 160.099C69.3283 159.996 68.5845 159.83 67.8615 159.603ZM68.2886 159.239C68.7572 159.401 69.2513 159.492 69.7516 159.508C70.1414 159.517 70.5305 159.473 70.9062 159.377C71.1249 159.331 71.3267 159.233 71.4914 159.093C71.5113 159.078 71.5273 159.059 71.5383 159.037C71.5493 159.016 71.555 158.992 71.555 158.969C71.555 158.945 71.5493 158.922 71.5383 158.9C71.5273 158.879 71.5113 158.86 71.4914 158.845C71.3387 158.753 71.1659 158.693 70.9853 158.67C70.7031 158.627 70.4172 158.607 70.1312 158.611C69.8063 158.633 69.4852 158.69 69.1743 158.779C68.8438 158.866 68.5403 159.023 68.2886 159.239Z" fill="black"/>
<path d="M71.2858 162.294L71.4123 162.126C73.4843 161.747 74.9316 161.462 75.7303 161.273C76.2364 160.792 76.6872 160.69 77.0668 160.959C77.1783 161.037 77.2656 161.14 77.3199 161.258L77.2724 161.411C77.1929 161.475 77.1236 161.549 77.0668 161.63C76.9646 161.801 76.8824 161.982 76.8217 162.17C76.7268 162.454 76.6239 162.673 76.5528 162.855C76.4688 163.059 76.3572 163.253 76.2206 163.431C76.0104 163.734 75.7225 163.984 75.3823 164.16C75.0189 164.338 74.6261 164.458 74.2198 164.518C73.6961 164.586 73.1664 164.608 72.6381 164.583C72.7503 164.696 72.8719 164.801 73.0019 164.897C73.2157 165.037 73.4577 165.136 73.7137 165.188C74.0212 165.245 74.3334 165.276 74.6469 165.283C74.9869 165.283 75.4377 165.283 75.8964 165.239L75.5642 165.691C74.7348 165.829 73.8915 165.883 73.0494 165.852C72.5129 165.856 71.9863 165.72 71.531 165.458C71.0795 165.111 70.7953 164.613 70.7401 164.073C70.6845 163.772 70.7007 163.463 70.7876 163.169C70.9207 162.862 71.0877 162.569 71.2858 162.294ZM74.6152 163.023L75.2004 161.951C74.6864 162.075 73.6188 162.243 72.0371 162.483C72.225 162.659 72.3587 162.878 72.4246 163.118C72.4577 163.408 72.4577 163.702 72.4246 163.993C72.7858 164.092 73.1706 164.092 73.5318 163.993C73.9137 163.851 74.2319 163.594 74.4333 163.263L74.5203 163.139C74.5757 163.139 74.5836 163.103 74.6152 163.059V163.023Z" fill="black"/>
<path d="M82.4761 171.948C82.0984 171.764 81.7896 171.479 81.5904 171.131C81.3697 170.728 81.2533 170.284 81.2503 169.833C81.2363 169.33 81.35 168.83 81.5825 168.375C81.8921 167.74 82.4602 167.242 83.1641 166.989C84.1089 166.668 85.107 166.5 86.114 166.494C86.1842 166.258 86.2687 166.027 86.367 165.801C86.6036 165.311 86.9578 164.877 87.403 164.532C87.8145 164.209 88.2898 163.961 88.8028 163.803C89.2729 163.664 89.7645 163.598 90.2579 163.606C90.6838 163.62 91.1016 163.717 91.4837 163.89C91.8438 164.04 92.139 164.297 92.322 164.62C92.3998 164.761 92.4403 164.917 92.4403 165.075C92.4403 165.234 92.3998 165.39 92.322 165.531C92.1407 165.911 91.8476 166.237 91.4758 166.472C91.0908 166.686 90.6719 166.843 90.2342 166.938C89.6986 167.04 89.1574 167.116 88.613 167.164C88.0041 167.237 87.6165 167.274 87.4821 167.31C87.3282 168.06 87.254 168.822 87.2607 169.585C87.7592 169.511 88.2529 169.411 88.7395 169.286C89.0767 169.186 89.4068 169.067 89.7281 168.929C90.0049 168.798 90.1788 168.761 90.2421 168.79C90.3054 168.82 90.2975 168.878 90.2421 169.016C90.2133 169.144 90.1709 169.268 90.1156 169.388C89.9778 169.683 89.7728 169.946 89.5145 170.161C89.2536 170.39 88.9611 170.586 88.6446 170.744C88.259 170.929 87.863 171.094 87.4584 171.24L87.7826 172.079C87.87 172.058 87.9548 172.028 88.0357 171.991C88.1086 171.951 88.1891 171.924 88.2729 171.911C88.2926 171.902 88.3142 171.897 88.3362 171.897C88.3581 171.897 88.3798 171.902 88.3995 171.911C88.4456 171.938 88.4794 171.979 88.4944 172.028C88.4996 172.079 88.4996 172.13 88.4944 172.181C88.252 172.518 87.9269 172.798 87.5454 172.998C87.0155 173.333 86.6438 173.457 86.454 173.369C86.3957 173.343 86.3443 173.305 86.3034 173.258C86.2624 173.212 86.2329 173.158 86.2168 173.1C86.1426 172.918 86.0896 172.73 86.0586 172.538C86.0586 172.29 85.9874 172.086 85.9558 171.918C85.2819 172.07 84.5929 172.158 83.8996 172.181C83.4112 172.218 82.9206 172.138 82.4761 171.948ZM88.012 165.859L87.8617 166.165C88.6622 166.137 89.4513 165.981 90.1947 165.706C90.6579 165.57 91.0587 165.296 91.3335 164.926C91.363 164.884 91.382 164.837 91.3891 164.787C91.3963 164.738 91.3913 164.687 91.3746 164.64C91.358 164.592 91.33 164.549 91.2928 164.512C91.2556 164.476 91.21 164.448 91.1595 164.43C90.8416 164.33 90.4967 164.33 90.1788 164.43C89.7228 164.519 89.2903 164.69 88.9056 164.933C88.5317 165.161 88.2356 165.482 88.0515 165.859H88.012ZM85.8688 167.595C85.3896 167.674 84.9187 167.791 84.4611 167.945C84.0659 168.076 83.6889 168.249 83.3381 168.462C83.0947 168.606 82.8916 168.801 82.745 169.031C82.5631 169.403 82.6422 169.665 82.9823 169.826C83.3406 169.975 83.7278 170.057 84.1211 170.066C84.6659 170.108 85.2142 170.078 85.7502 169.979C85.8213 169.366 85.853 168.572 85.9083 167.595H85.8688Z" fill="black"/>
<path d="M101.891 170.183C102.057 170.183 102.215 170.183 102.381 170.183H102.856C103.013 170.204 103.169 170.234 103.323 170.271C103.627 170.341 103.903 170.493 104.113 170.708C104.298 170.917 104.415 171.17 104.453 171.437C104.504 171.709 104.488 171.988 104.406 172.254C104.252 172.754 104.026 173.232 103.734 173.676C103.401 174.21 103.011 174.713 102.571 175.178C102.113 175.671 101.604 176.123 101.053 176.527C100.331 177.056 99.4995 177.443 98.6092 177.664C97.8604 177.882 97.0605 177.902 96.2999 177.722C95.8426 177.599 95.4404 177.344 95.1532 176.993C94.856 176.6 94.6711 176.143 94.6154 175.666C94.5564 175.066 94.6153 174.461 94.7894 173.88C95.0637 172.969 95.5739 172.133 96.2762 171.444C97.0044 170.707 97.8496 170.075 98.7831 169.571C99.6424 169.094 100.565 168.721 101.527 168.462C102.177 168.252 102.875 168.202 103.552 168.316C103.722 168.354 103.881 168.426 104.018 168.527C104.154 168.628 104.265 168.755 104.343 168.9C104.514 169.312 104.605 169.749 104.612 170.19C104.162 170.081 103.7 170.022 103.236 170.015C102.781 170.017 102.329 170.073 101.891 170.183ZM99.3763 171.248C98.8031 171.611 98.273 172.029 97.7946 172.494C97.2597 172.99 96.7653 173.521 96.3157 174.084C95.9973 174.479 95.7466 174.917 95.5723 175.382C95.343 176.184 95.6198 176.68 96.3632 176.884C97.1919 176.987 98.0334 176.814 98.7357 176.395C99.8048 175.896 100.78 175.241 101.622 174.456C102.411 173.8 102.996 172.962 103.315 172.028C103.481 171.437 103.315 171.08 102.848 170.949C102.357 170.854 101.849 170.874 101.369 171.007C100.696 171.176 100.06 171.449 99.487 171.816C99.2655 171.969 98.7831 172.334 98.0477 172.947C98.395 172.322 98.8429 171.749 99.3763 171.248Z" fill="black"/>
<path d="M107.822 173.019L108.178 173.085C108.458 172.717 108.793 172.388 109.175 172.108C109.3 172.024 109.442 171.965 109.593 171.934C109.744 171.902 109.9 171.9 110.052 171.926C110.361 171.977 110.503 172.072 110.48 172.203C110.456 172.334 110.321 172.436 110.029 172.684C109.787 172.876 109.562 173.086 109.357 173.311C109.538 173.377 109.705 173.42 109.855 173.464C110.005 173.508 110.116 173.523 110.195 173.552C109.739 174.114 109.237 174.643 108.692 175.134L107.981 174.959L107.593 174.864C107.221 175.287 106.889 175.681 106.62 176.009C106.38 176.309 106.165 176.626 105.98 176.957C105.818 177.224 105.709 177.515 105.655 177.817C105.584 178.204 105.711 178.415 106.019 178.466C106.326 178.472 106.63 178.401 106.897 178.262C107.44 178.027 107.968 177.764 108.479 177.474L108.384 178.029C106.597 179.37 105.347 179.99 104.627 179.866C104.511 179.845 104.402 179.799 104.308 179.734C104.213 179.668 104.136 179.584 104.082 179.487C103.95 179.246 103.911 178.971 103.971 178.707C104.019 178.453 104.107 178.208 104.232 177.978C104.366 177.708 104.588 177.314 104.912 176.796L104.651 176.95C104.575 176.995 104.504 177.046 104.438 177.103L103.979 177.372L104.082 176.804C105.028 176.172 105.888 175.438 106.644 174.616C106.563 174.605 106.483 174.585 106.407 174.558L106.146 174.514C105.901 174.473 105.651 174.456 105.402 174.463H105.205C105.163 174.468 105.12 174.468 105.078 174.463C105.078 174.463 105.078 174.463 105.078 174.405C105.175 174.13 105.34 173.88 105.561 173.676C105.746 173.45 105.964 173.248 106.209 173.078C106.401 172.957 106.625 172.887 106.858 172.874C107.183 172.896 107.506 172.945 107.822 173.019Z" fill="black"/>
<path d="M115.462 178.233L115.406 178.758C114.877 179.203 114.402 179.567 114.03 179.837C113.708 180.067 113.367 180.275 113.01 180.457C112.802 180.576 112.56 180.637 112.314 180.632C111.879 180.632 111.682 180.318 111.729 179.808C111.805 179.317 111.993 178.847 112.283 178.43C112.69 177.804 113.147 177.207 113.651 176.643C113.374 176.755 113.109 176.892 112.86 177.052C112.631 177.202 112.417 177.37 112.219 177.555L111.721 178.014C111.318 178.386 110.93 178.743 110.543 179.152C110.155 179.56 109.902 179.793 109.752 179.917C109.655 180.007 109.526 180.061 109.388 180.07C108.961 180.027 108.787 179.48 108.89 178.415C108.935 178.028 109.026 177.647 109.159 177.278C109.416 176.709 109.762 176.178 110.187 175.703C111.318 174.361 112.283 173.26 113.066 172.407C113.676 171.738 114.326 171.1 115.011 170.497C115.525 170.066 115.865 169.862 116.015 169.891C116.179 169.914 116.335 169.969 116.474 170.052C116.585 170.117 116.648 170.19 116.64 170.278C116.568 170.515 116.445 170.736 116.276 170.927C116.055 171.226 115.683 171.656 115.13 172.319C114.576 172.983 114.141 173.45 113.888 173.719C113.635 173.989 113.287 174.361 112.82 174.85C112.354 175.338 111.911 175.783 111.508 176.155C111.104 176.527 110.677 176.964 110.179 177.394L110.076 178.393C110.907 177.664 111.658 177.037 112.235 176.563C112.709 176.178 113.214 175.827 113.746 175.513C114.002 175.331 114.309 175.22 114.631 175.192C114.729 175.209 114.82 175.248 114.898 175.305C114.975 175.362 115.036 175.436 115.074 175.52C115.187 175.67 115.248 175.848 115.248 176.031C115.228 176.102 115.193 176.169 115.145 176.228C114.695 176.665 114.355 177.022 114.054 177.321C113.82 177.562 113.609 177.821 113.421 178.094C113.291 178.28 113.205 178.488 113.168 178.707C113.168 178.977 113.255 179.108 113.508 179.13C114.229 178.982 114.9 178.674 115.462 178.233Z" fill="black"/>
<path d="M117.447 178.59V178.794C117.434 179.054 117.515 179.31 117.676 179.523C117.751 179.613 117.847 179.685 117.956 179.734C118.066 179.783 118.187 179.809 118.309 179.808C118.608 179.807 118.904 179.75 119.179 179.64C119.494 179.502 119.796 179.338 120.08 179.152C120.373 178.947 120.729 178.67 121.172 178.32V178.831C120.634 179.461 120.018 180.031 119.337 180.53C118.848 180.885 118.244 181.08 117.621 181.084C117.384 181.087 117.15 181.033 116.943 180.928C116.735 180.824 116.56 180.671 116.435 180.486C116.128 180.012 115.99 179.461 116.039 178.911C116.04 178.362 116.193 177.823 116.482 177.343C116.856 176.792 117.323 176.3 117.866 175.885C118.26 175.569 118.699 175.304 119.171 175.097C119.523 174.939 119.91 174.854 120.302 174.85C120.529 174.846 120.75 174.916 120.926 175.046C121.006 175.113 121.069 175.196 121.108 175.288C121.148 175.38 121.164 175.48 121.156 175.579C121.138 175.954 120.991 176.314 120.737 176.607C120.399 177.014 119.98 177.358 119.503 177.62C118.849 177.997 118.161 178.321 117.447 178.59ZM117.55 178.043C118.022 177.877 118.465 177.646 118.862 177.358C119.17 177.125 119.437 176.849 119.653 176.541C119.796 176.376 119.891 176.18 119.93 175.972C119.93 175.848 119.883 175.783 119.756 175.776C119.575 175.803 119.403 175.865 119.25 175.958C119.003 176.099 118.767 176.258 118.546 176.432C118.306 176.654 118.091 176.898 117.906 177.161C117.719 177.428 117.597 177.729 117.55 178.043Z" fill="black"/>
<path d="M121.828 178.991V178.452C122.065 178.153 122.282 177.842 122.477 177.518C122.327 177.475 122.187 177.406 122.065 177.314C121.976 177.196 121.926 177.057 121.923 176.913C121.937 176.658 122.013 176.409 122.144 176.184C122.303 175.868 122.497 175.567 122.722 175.287C122.897 175.068 123.117 174.882 123.37 174.74C123.441 174.706 123.519 174.686 123.6 174.682C123.718 174.682 123.773 174.726 123.773 174.828C123.741 175.037 123.663 175.238 123.544 175.418C124.265 175.23 125 175.089 125.743 174.995C125.824 174.981 125.907 174.981 125.988 174.995C126.112 175.081 126.204 175.201 126.249 175.338C126.314 175.512 126.352 175.694 126.36 175.878C126.359 176.014 126.312 176.147 126.225 176.257C126.071 176.473 125.902 176.68 125.719 176.877C125.444 177.206 125.205 177.56 125.007 177.934C124.864 178.203 124.778 178.495 124.754 178.794C124.754 179.049 124.936 179.181 125.26 179.166C125.951 178.952 126.56 178.56 127.016 178.036V178.597C126.573 179.093 126.225 179.509 125.917 179.793C125.608 180.078 125.347 180.311 125.126 180.522C124.926 180.666 124.689 180.759 124.438 180.792C124.319 180.796 124.2 180.772 124.095 180.72C123.989 180.669 123.9 180.593 123.837 180.5C123.643 180.23 123.541 179.913 123.544 179.589C123.547 179.309 123.598 179.031 123.694 178.765C123.823 178.416 123.987 178.079 124.185 177.759C124.406 177.387 124.667 177.03 124.976 176.651L124.438 176.775L123.323 177.037C122.968 177.772 122.46 178.436 121.828 178.991Z" fill="black"/>
<path d="M136.522 179.625L135.937 179.363C135.895 179.349 135.858 179.326 135.829 179.295C135.8 179.265 135.78 179.228 135.77 179.188C135.814 178.91 135.894 178.639 136.008 178.379L136.506 176.993C136.696 176.41 136.878 175.921 136.988 175.535C137.099 175.149 137.249 174.682 137.423 174.077C137.597 173.471 137.716 172.888 137.842 172.319C138.062 171.517 138.164 170.69 138.143 169.862C138.064 169.483 137.866 169.315 137.566 169.374C137.212 169.49 136.893 169.679 136.632 169.928C136.221 170.29 135.843 170.682 135.502 171.102C135.152 171.541 134.857 172.016 134.624 172.516C134.42 172.872 134.34 173.277 134.394 173.676C134.401 173.716 134.421 173.754 134.45 173.785C134.502 173.796 134.556 173.796 134.608 173.785C134.835 173.702 135.04 173.575 135.209 173.413C135.328 173.318 135.399 173.326 135.415 173.413C135.43 173.501 135.28 173.77 134.932 174.208C134.584 174.645 134.323 174.937 134.141 174.937C133.85 174.929 133.571 174.829 133.35 174.653C133.046 174.494 132.819 174.233 132.718 173.924C132.716 173.676 132.756 173.43 132.836 173.194C132.953 172.744 133.101 172.301 133.279 171.867C133.471 171.407 133.706 170.963 133.983 170.54C134.288 170.079 134.655 169.655 135.075 169.279C135.458 168.913 135.882 168.586 136.34 168.302C136.65 168.09 136.998 167.929 137.368 167.828C137.55 167.782 137.741 167.782 137.923 167.827C138.105 167.872 138.271 167.96 138.404 168.083C138.73 168.402 138.94 168.808 139.005 169.242C139.144 170.324 139.08 171.419 138.815 172.48C138.45 174.256 137.921 176 137.233 177.693L137.32 177.861C137.362 177.906 137.387 177.962 137.392 178.021C137.4 178.045 137.4 178.071 137.392 178.094L137.32 178.262L136.925 179.37C136.878 179.502 136.822 179.567 136.751 179.574C136.725 179.606 136.688 179.628 136.646 179.637C136.604 179.646 136.561 179.642 136.522 179.625Z" fill="black"/>
<path d="M145.268 172.895C144.644 174.215 144.383 175.083 144.478 175.477C144.549 175.71 144.683 175.79 144.865 175.739C145.085 175.646 145.274 175.5 145.411 175.316C145.608 175.076 145.925 174.682 146.32 174.106L146.494 174.66C145.956 175.63 145.514 176.33 145.221 176.789C145.032 177.128 144.73 177.401 144.359 177.569C143.908 177.708 143.568 177.475 143.426 176.906C143.377 176.732 143.353 176.553 143.355 176.373C143.355 176.198 143.355 176.009 143.418 175.805C143.481 175.601 143.536 175.294 143.616 174.915C143.695 174.536 143.837 174.091 143.956 173.595C143.594 173.967 143.295 174.388 143.07 174.842C142.876 175.18 142.704 175.528 142.556 175.885C142.421 176.206 142.271 176.548 142.137 176.942C142.041 177.213 141.928 177.479 141.797 177.737C141.774 177.797 141.738 177.851 141.69 177.897C141.642 177.942 141.584 177.977 141.52 177.999C141.354 178.043 141.132 177.912 140.871 177.598C140.593 177.246 140.392 176.848 140.278 176.425C140.193 176.19 140.155 175.943 140.167 175.695C140.206 175.419 140.267 175.146 140.349 174.879C140.499 174.358 140.698 173.851 140.943 173.362C141.066 173.085 141.301 172.863 141.599 172.742C141.741 172.698 141.892 172.683 142.042 172.699C142.104 172.711 142.16 172.74 142.205 172.781C142.25 172.822 142.281 172.875 142.295 172.932C142.311 172.989 142.311 173.049 142.295 173.107C142.283 173.176 142.259 173.242 142.224 173.304C142.181 173.425 142.125 173.542 142.058 173.654C141.496 174.828 141.267 175.557 141.33 175.841C141.377 175.987 141.449 176.06 141.551 176.031C141.654 176.002 141.718 175.87 141.836 175.608C141.955 175.345 142.113 175.01 142.311 174.602C142.508 174.193 142.754 173.727 143.038 173.253C143.358 172.745 143.715 172.258 144.106 171.794C144.256 171.574 144.474 171.399 144.731 171.291C144.81 171.291 144.928 171.357 145.086 171.583C145.24 171.783 145.357 172.005 145.434 172.239C145.448 172.468 145.391 172.696 145.268 172.895Z" fill="black"/>
<path d="M150.361 172.618C150.116 173.348 149.887 173.909 149.673 174.419C149.513 174.813 149.328 175.197 149.12 175.571C149.043 175.749 148.921 175.906 148.764 176.031C148.622 176.089 148.432 176.031 148.171 175.9C147.876 175.712 147.61 175.489 147.38 175.236C147.128 174.957 146.928 174.641 146.787 174.303C146.574 173.709 146.614 173.063 146.897 172.494C147.171 171.807 147.557 171.163 148.044 170.584C148.348 170.144 148.764 169.779 149.254 169.52C149.415 169.473 149.586 169.464 149.752 169.493C149.917 169.522 150.072 169.589 150.203 169.687C150.266 168.71 150.346 167.813 150.44 167.026C150.499 166.424 150.607 165.826 150.765 165.239C150.875 164.831 150.986 164.598 151.089 164.561C151.149 164.533 151.215 164.518 151.283 164.518C151.35 164.518 151.416 164.533 151.476 164.561C151.614 164.633 151.72 164.746 151.777 164.882C151.899 165.411 151.899 165.957 151.777 166.486C151.642 167.296 151.516 168.076 151.397 168.863C151.265 169.587 151.183 170.317 151.152 171.051C151.105 171.667 151.197 172.285 151.421 172.866C151.619 173.34 151.856 173.501 152.164 173.377C152.412 173.243 152.608 173.042 152.726 172.801C152.916 172.487 153.177 171.984 153.517 171.306L153.754 171.875C153.208 173.763 152.631 174.791 152.022 175.061C151.918 175.11 151.801 175.129 151.686 175.116C151.57 175.103 151.462 175.058 151.374 174.988C151.153 174.781 150.983 174.532 150.875 174.259C150.644 173.73 150.472 173.18 150.361 172.618ZM150.164 170.511C149.677 170.941 149.232 171.409 148.835 171.911C148.515 172.273 148.231 172.661 147.989 173.07C147.908 173.293 147.884 173.53 147.918 173.763C147.935 173.998 147.983 174.231 148.06 174.456C148.091 174.534 148.149 174.601 148.226 174.645C148.262 174.662 148.301 174.67 148.341 174.67C148.381 174.67 148.42 174.662 148.455 174.645C148.549 174.604 148.624 174.535 148.669 174.449C148.78 174.274 148.88 174.094 148.969 173.909C149.112 173.654 149.183 173.479 149.23 173.406C149.278 173.333 149.42 173.049 149.618 172.677C149.775 172.399 149.913 172.111 150.029 171.816C150.121 171.615 150.178 171.4 150.195 171.182C150.216 170.958 150.205 170.733 150.164 170.511Z" fill="black"/>
<path d="M157.265 168.841C157.036 170.147 156.838 171.109 156.664 171.692C156.612 172.107 156.395 172.488 156.055 172.764C155.953 172.811 155.841 172.835 155.727 172.835C155.613 172.835 155.501 172.811 155.399 172.764C155.127 172.681 154.882 172.535 154.687 172.341C154.464 172.103 154.273 171.841 154.118 171.561C154.019 171.384 153.947 171.195 153.904 171C153.852 170.789 153.831 170.574 153.841 170.358C153.841 170.085 153.875 169.814 153.944 169.549C153.991 169.235 154.07 168.871 154.173 168.47C154.236 168.214 154.284 168.017 154.331 167.842C154.352 167.701 154.409 167.566 154.497 167.449C154.62 167.321 154.771 167.219 154.94 167.15C155.094 167.066 155.263 167.007 155.439 166.975C155.597 166.975 155.699 166.975 155.723 166.975C155.764 167.165 155.764 167.361 155.723 167.551C155.676 167.962 155.584 168.368 155.446 168.761C155.279 169.295 155.071 169.816 154.822 170.322C154.854 170.572 154.923 170.817 155.027 171.051C155.138 171.262 155.272 171.335 155.446 171.248C155.62 171.16 155.573 171.124 155.676 170.941C155.779 170.759 155.889 170.467 156.071 169.993C156.253 169.52 156.427 169.148 156.569 168.783C156.703 168.429 156.796 168.062 156.846 167.689C156.941 167.223 157.028 166.873 157.091 166.625C157.257 166.049 157.392 165.677 157.447 165.487C157.506 165.337 157.618 165.209 157.764 165.123C157.808 165.095 157.86 165.08 157.914 165.08C157.967 165.08 158.02 165.095 158.064 165.123C158.188 165.248 158.29 165.391 158.365 165.546C158.407 165.627 158.439 165.713 158.459 165.801C158.481 165.907 158.481 166.016 158.459 166.122C158.459 166.26 158.412 166.508 158.365 166.851C158.317 167.194 158.262 167.646 158.191 168.141C158.166 168.42 158.166 168.701 158.191 168.98C158.193 169.187 158.236 169.392 158.317 169.585C158.452 169.84 158.626 169.906 158.823 169.804C159.036 169.685 159.209 169.513 159.322 169.308C159.464 169.046 159.685 168.623 159.962 168.032L160.223 168.528C159.915 169.352 159.693 169.986 159.543 170.343C159.414 170.659 159.26 170.966 159.084 171.262C158.972 171.461 158.803 171.628 158.594 171.743C158.175 171.948 157.803 171.816 157.574 171.321C157.451 171.049 157.379 170.761 157.36 170.467C157.329 170.147 157.313 169.585 157.265 168.841Z" fill="black"/>
<path d="M163.829 165.64L164.161 166.165C163.977 168.071 163.571 169.216 162.944 169.6C162.77 169.701 162.567 169.749 162.363 169.737C162.158 169.725 161.963 169.654 161.805 169.534C161.299 169.213 160.886 168.782 160.603 168.28C160.252 167.681 160.002 167.037 159.859 166.37C159.487 164.691 159.397 162.97 159.59 161.266C159.646 160.662 159.809 160.07 160.073 159.516C160.128 159.386 160.218 159.27 160.334 159.18C160.374 159.151 160.424 159.135 160.476 159.135C160.528 159.135 160.578 159.151 160.618 159.18C160.749 159.307 160.861 159.449 160.951 159.603C161.434 160.51 161.678 161.509 161.662 162.52C161.709 163.962 161.568 165.403 161.243 166.814C161.32 167.023 161.415 167.225 161.528 167.42C161.679 167.682 161.914 167.896 162.2 168.032C162.314 168.086 162.442 168.109 162.569 168.098C162.696 168.088 162.818 168.045 162.92 167.974C163.056 167.881 163.16 167.755 163.22 167.609C163.306 167.409 163.38 167.204 163.442 166.997C163.521 166.771 163.647 166.319 163.829 165.64ZM160.872 165.677C160.968 165.261 161.034 164.84 161.069 164.415C161.117 163.955 161.133 163.492 161.117 163.03C161.109 162.618 161.072 162.206 161.006 161.798C160.98 161.545 160.907 161.299 160.792 161.069C160.729 160.967 160.642 160.937 160.571 160.981C160.52 161.03 160.48 161.087 160.452 161.149C160.292 161.802 160.254 162.475 160.342 163.139C160.403 164.002 160.581 164.855 160.872 165.677Z" fill="black"/>
<path d="M170.259 161.987L169.333 165.436C169.475 166.66 169.475 167.895 169.333 169.118C169.334 169.703 169.131 170.273 168.756 170.744C168.614 170.839 168.479 170.81 168.361 170.642C168.075 170.152 167.934 169.602 167.949 169.046C167.93 168.747 167.93 168.447 167.949 168.149C167.989 167.828 168.036 167.565 168.084 167.317C168.131 167.07 168.203 166.749 168.313 166.377C168.424 166.005 168.487 165.735 168.519 165.582C168.297 164.357 168.116 163.395 167.957 162.789C167.863 163.519 167.76 164.175 167.649 164.693C167.561 165.133 167.429 165.565 167.254 165.983C167.138 166.263 166.951 166.513 166.708 166.712C166.471 166.88 166.123 166.851 165.656 166.625C165.202 166.407 164.813 166.089 164.525 165.699C164.384 165.501 164.285 165.281 164.233 165.05C164.169 164.747 164.145 164.439 164.161 164.131C164.181 163.735 164.242 163.342 164.343 162.957C164.456 162.483 164.615 162.02 164.818 161.572C165.048 160.887 165.452 160.262 165.996 159.749C166.297 159.537 166.518 159.552 166.668 159.749C166.819 159.946 166.771 160.558 166.344 161.28C166.067 161.743 165.844 162.232 165.68 162.738C165.509 163.232 165.411 163.745 165.387 164.262C165.35 164.636 165.441 165.011 165.648 165.334C165.715 165.443 165.821 165.526 165.949 165.568C166.003 165.581 166.059 165.583 166.114 165.573C166.169 165.563 166.221 165.541 166.265 165.509C166.46 165.347 166.595 165.133 166.653 164.897C166.806 164.438 166.925 163.97 167.008 163.497C167.08 163.059 167.127 162.619 167.151 162.177C167.163 161.711 167.205 161.246 167.277 160.784C167.287 160.533 167.403 160.294 167.602 160.121C167.641 160.09 167.686 160.068 167.735 160.054C167.784 160.04 167.835 160.036 167.886 160.041C167.999 160.069 168.096 160.137 168.155 160.23C168.358 160.562 168.495 160.925 168.558 161.302C168.685 161.827 168.859 162.666 169.08 163.869L169.871 161.513L170.259 161.987Z" fill="black"/>
<path d="M171.556 160.551L171.69 160.704C171.858 160.92 172.105 161.073 172.386 161.134C172.506 161.151 172.628 161.141 172.743 161.107C172.858 161.073 172.963 161.015 173.05 160.937C173.281 160.731 173.464 160.482 173.588 160.208C173.729 159.901 173.842 159.584 173.928 159.26C174.015 158.918 174.086 158.48 174.181 157.933L174.521 158.32C174.542 159.147 174.466 159.973 174.292 160.784C174.168 161.367 173.853 161.902 173.39 162.316C173.225 162.469 173.019 162.579 172.792 162.635C172.566 162.691 172.328 162.692 172.101 162.636C171.546 162.486 171.063 162.164 170.733 161.725C170.362 161.303 170.112 160.801 170.006 160.267C169.902 159.603 169.915 158.928 170.045 158.269C170.118 157.767 170.264 157.276 170.48 156.81C170.633 156.461 170.864 156.145 171.16 155.884C171.32 155.734 171.534 155.643 171.761 155.629C171.865 155.626 171.968 155.647 172.061 155.691C172.153 155.734 172.233 155.798 172.291 155.877C172.536 156.178 172.669 156.544 172.671 156.92C172.694 157.449 172.613 157.977 172.434 158.48C172.203 159.192 171.91 159.884 171.556 160.551ZM171.263 160.084C171.503 159.652 171.676 159.19 171.777 158.714C171.854 158.336 171.875 157.951 171.84 157.569C171.828 157.356 171.763 157.149 171.651 156.964C171.572 156.876 171.492 156.854 171.398 156.964C171.279 157.099 171.19 157.255 171.137 157.423C171.049 157.69 170.983 157.963 170.939 158.24C170.899 158.557 170.899 158.877 170.939 159.195C170.977 159.509 171.088 159.812 171.263 160.084Z" fill="black"/>
<path d="M177.645 152.53C177.724 153.989 177.914 154.864 178.215 155.163C178.389 155.33 178.547 155.345 178.681 155.214C178.833 155.032 178.929 154.815 178.958 154.587C179.013 154.288 179.1 153.792 179.179 153.128L179.591 153.544C179.591 154.645 179.543 155.462 179.504 156.001C179.502 156.393 179.369 156.775 179.124 157.095C178.792 157.423 178.412 157.365 177.985 156.942C177.855 156.811 177.746 156.664 177.661 156.504C177.58 156.333 177.509 156.158 177.447 155.979C177.384 155.775 177.297 155.476 177.186 155.104C177.076 154.732 176.981 154.273 176.846 153.777C176.705 154.272 176.646 154.783 176.672 155.294C176.662 155.678 176.678 156.063 176.72 156.446C176.72 156.796 176.791 157.175 176.862 157.576C176.907 157.859 176.936 158.144 176.949 158.429C176.959 158.494 176.954 158.561 176.934 158.624C176.913 158.686 176.878 158.745 176.831 158.794C176.704 158.91 176.451 158.896 176.04 158.743C175.625 158.569 175.251 158.321 174.94 158.014C174.761 157.846 174.614 157.651 174.506 157.438C174.402 157.174 174.322 156.904 174.268 156.628C174.146 156.098 174.074 155.559 174.055 155.017C174.031 154.711 174.129 154.407 174.332 154.164C174.437 154.017 174.593 153.906 174.774 153.85C174.832 153.831 174.895 153.828 174.954 153.842C175.014 153.857 175.067 153.887 175.107 153.93C175.148 153.977 175.178 154.032 175.194 154.091C175.206 154.158 175.206 154.227 175.194 154.295C175.206 154.421 175.206 154.548 175.194 154.674C175.265 155.972 175.399 156.73 175.613 156.934C175.826 157.139 175.818 157.066 175.897 156.993C175.976 156.92 175.969 156.781 175.945 156.49C175.921 156.198 175.897 155.841 175.874 155.389C175.85 154.937 175.874 154.412 175.874 153.857C175.907 153.265 175.986 152.675 176.111 152.093C176.14 151.828 176.246 151.576 176.419 151.364C176.475 151.298 176.625 151.327 176.87 151.444C177.105 151.548 177.317 151.691 177.495 151.867C177.616 152.069 177.669 152.3 177.645 152.53Z" fill="black"/>
<path d="M182.912 148.892L183.347 149.256C183.402 150.088 183.442 150.715 183.426 151.225C183.44 151.658 183.401 152.091 183.308 152.516C183.253 152.843 183.109 153.152 182.888 153.413C182.792 153.524 182.672 153.617 182.536 153.686C182.401 153.755 182.251 153.798 182.098 153.814C181.711 153.853 181.32 153.795 180.967 153.646C180.554 153.502 180.176 153.287 179.852 153.012C179.578 152.779 179.369 152.489 179.243 152.166C179.095 151.691 179.013 151.201 178.997 150.708C178.933 150.032 178.952 149.352 179.053 148.68C179.079 148.267 179.217 147.865 179.456 147.514C179.515 147.441 179.59 147.381 179.676 147.337C179.762 147.293 179.857 147.266 179.954 147.259C180.055 147.255 180.154 147.269 180.248 147.302C180.342 147.335 180.428 147.384 180.5 147.448C180.692 147.661 180.832 147.91 180.911 148.177C181.027 148.51 181.111 148.852 181.164 149.198C181.211 149.415 181.18 149.64 181.077 149.84C181.059 149.865 181.035 149.886 181.006 149.901C180.977 149.916 180.944 149.923 180.911 149.923C180.878 149.923 180.846 149.916 180.817 149.901C180.788 149.886 180.763 149.865 180.745 149.84C180.725 149.806 180.698 149.776 180.666 149.752L180.571 149.672C180.524 149.628 180.484 149.621 180.437 149.672C180.397 149.723 180.375 149.784 180.374 149.847C180.31 150.525 180.271 150.985 180.255 151.24C180.241 151.464 180.257 151.69 180.302 151.911C180.357 152.136 180.501 152.336 180.705 152.47C180.909 152.605 181.16 152.665 181.41 152.64C181.565 152.625 181.716 152.58 181.852 152.509C181.988 152.437 182.107 152.34 182.2 152.224C182.473 151.858 182.649 151.439 182.714 150.999C182.834 150.302 182.9 149.598 182.912 148.892Z" fill="black"/>
<path d="M184.359 147.492L184.525 147.616C184.743 147.793 185.026 147.887 185.316 147.878C185.44 147.869 185.559 147.833 185.665 147.774C185.771 147.714 185.86 147.633 185.925 147.536C186.099 147.294 186.223 147.025 186.289 146.741C186.352 146.411 186.387 146.077 186.392 145.742C186.392 145.385 186.392 144.94 186.336 144.386L186.756 144.692C186.971 145.494 187.087 146.316 187.104 147.142C187.122 147.742 186.94 148.333 186.582 148.834C186.457 149.02 186.283 149.174 186.075 149.28C185.867 149.386 185.633 149.441 185.395 149.439C184.809 149.419 184.25 149.21 183.814 148.848C183.35 148.517 182.987 148.079 182.762 147.579C182.515 146.952 182.374 146.293 182.343 145.625C182.296 145.125 182.328 144.622 182.438 144.131C182.505 143.756 182.656 143.399 182.88 143.081C183.002 142.9 183.19 142.765 183.41 142.701C183.509 142.673 183.614 142.669 183.716 142.69C183.817 142.71 183.91 142.754 183.988 142.818C184.294 143.061 184.507 143.388 184.597 143.751C184.741 144.265 184.787 144.798 184.731 145.326C184.665 146.056 184.541 146.779 184.359 147.492ZM183.964 147.106C184.096 146.629 184.157 146.139 184.146 145.647C184.136 145.266 184.067 144.888 183.94 144.524C183.885 144.319 183.774 144.131 183.616 143.977C183.521 143.905 183.434 143.905 183.363 143.977C183.277 144.137 183.229 144.31 183.221 144.488C183.196 144.767 183.196 145.047 183.221 145.326C183.262 145.641 183.336 145.951 183.442 146.252C183.544 146.569 183.722 146.861 183.964 147.106Z" fill="black"/>
<path d="M186.898 143.985L186.724 143.875C186.21 141.87 185.838 140.47 185.593 139.697C185.071 139.238 184.945 138.801 185.19 138.407C185.269 138.303 185.368 138.214 185.482 138.144L185.648 138.188C185.717 138.257 185.794 138.318 185.878 138.37C186.055 138.459 186.244 138.528 186.439 138.574C186.732 138.655 186.969 138.742 187.159 138.801C187.374 138.874 187.579 138.972 187.768 139.092C188.094 139.291 188.365 139.559 188.559 139.872C188.758 140.221 188.902 140.594 188.986 140.981C189.089 141.49 189.142 142.008 189.144 142.526C189.257 142.409 189.357 142.282 189.444 142.147C189.581 141.922 189.667 141.674 189.697 141.418C189.739 141.114 189.753 140.806 189.737 140.499C189.737 140.171 189.682 139.77 189.618 139.282L190.101 139.581C190.292 140.384 190.398 141.202 190.417 142.023C190.455 142.543 190.346 143.063 190.101 143.533C189.861 143.875 189.514 144.143 189.106 144.3C188.698 144.458 188.248 144.498 187.815 144.415C187.496 144.298 187.189 144.154 186.898 143.985ZM187.483 140.689L186.36 140.171C186.51 140.667 186.74 141.673 187.088 143.212C187.248 143.024 187.462 142.88 187.705 142.796C187.999 142.745 188.299 142.728 188.598 142.745C188.672 142.385 188.642 142.013 188.511 141.666C188.363 141.309 188.083 141.012 187.72 140.828L187.586 140.747L187.483 140.689Z" fill="black"/>
<path d="M107.15 88.956C109.428 87.7092 114.829 84.3988 114.829 84.3988C114.829 84.3988 111.429 89.5029 105.988 91.807C104.094 95.9066 101.915 99.8888 99.4632 103.729L99.1548 105.42C98.8701 106.827 98.8464 110.014 101.527 109.635C102.982 109.43 104.991 108.577 107.53 106.456L113.066 101.811C114.94 101.14 110.622 105.041 107.182 108.293C104.546 110.83 102.015 112.099 99.5898 112.099C97.4229 112.099 96.2762 110.996 96.1496 108.789C95.3588 110.05 93.6664 112.369 91.4837 112.675C88.4627 113.105 89.4829 109.117 89.4829 109.117L90.7245 108.942C90.7245 108.942 90.764 111.436 92.2429 111.224C93.8958 110.998 95.4695 108.227 95.9677 107.506C96.0389 106.995 96.4739 105.413 96.5925 104.808L99.3446 91.457L99.6293 89.9987C99.6293 89.9987 102.287 79.1781 105.379 78.7406C107.419 78.4563 108.305 79.951 108.4 83.6113C108.258 85.4443 107.832 87.249 107.134 88.9706L107.15 88.956ZM106.011 89.5029C106.858 86.9873 107.443 85.7332 107.15 83.7718C106.976 82.5468 106.359 81.8104 105.418 81.9416C103.164 82.2624 99.4474 102.431 99.4474 102.431C101.523 99.1465 103.354 95.7359 104.928 92.2226C103.987 92.6382 102.263 93.3965 101.377 93.7319L101.994 91.3257C103.006 90.9174 104.928 89.9841 106.011 89.4664V89.5029ZM99.1232 92.4194L98.6566 94.7381C96.8619 95.3376 95.0322 95.8439 93.1761 96.2548L94.4889 93.7319C96.0598 93.3772 97.6071 92.9389 99.1232 92.4194Z" fill="black"/>
<path d="M183.134 77.8875C185.411 76.6407 190.82 73.3304 190.82 73.3304C190.82 73.3304 187.412 78.4344 181.979 80.7385C180.086 84.8381 177.906 88.8203 175.455 92.6601L175.138 94.3517C174.853 95.759 174.838 98.9453 177.511 98.5662C178.958 98.362 180.975 97.5089 183.513 95.3871L189.049 90.7424C190.923 90.0716 186.605 93.9725 183.165 97.2173C180.529 99.7595 177.998 101.031 175.573 101.031C173.414 101.031 172.267 99.9224 172.141 97.7131C171.35 98.9818 168.29 102.088 166.099 102.365C163.078 102.788 163.023 98.3912 163.023 98.3912L165.601 98.4641C165.601 98.4641 166.154 101.191 167.641 100.987C169.286 100.754 171.453 97.1589 171.951 96.4298C172.022 95.9267 172.457 94.3371 172.584 93.7392L175.328 80.3812L175.621 78.9229C175.621 78.9229 178.278 68.1024 181.37 67.6649C183.402 67.3805 184.288 68.8753 184.383 72.5283C184.245 74.3642 183.819 76.1719 183.118 77.8948L183.134 77.8875ZM181.995 78.4344C182.849 75.9188 183.426 74.6647 183.141 72.7033C182.96 71.4783 182.351 70.7419 181.41 70.8731C179.148 71.194 175.431 91.3622 175.431 91.3622C177.507 88.0772 179.341 84.6668 180.919 81.1541C179.97 81.5625 178.254 82.3281 177.36 82.6562L177.985 80.2573C178.997 79.8854 180.911 78.9521 181.995 78.4344ZM175.114 81.351L174.648 83.6697C172.851 84.2638 171.022 84.7701 169.167 85.1863L170.48 82.6635C172.051 82.3027 173.598 81.8597 175.114 81.3364V81.351Z" fill="black"/>
<path fill-rule="evenodd" clip-rule="evenodd" d="M136.814 70.2825C136.814 70.2825 138.665 69.6336 137.494 66.0024C137.494 66.0024 124.517 69.8305 123.663 87.031C123.473 90.8007 124.454 92.6673 124.454 92.6673L125.308 92.2663C125.007 89.7945 124.572 87.5779 124.865 85.354C125.429 81.9949 126.651 78.7584 128.471 75.8022C130.195 73.1772 133.287 70.4356 136.277 69.5752C136.886 69.393 136.095 70.3044 136.783 70.3044L136.814 70.2825Z" fill="black"/>
<path fill-rule="evenodd" clip-rule="evenodd" d="M115.889 87.68C120.681 86.8998 123.006 90.4799 124.809 90.9976C126.613 91.5153 128.764 90.8664 130.345 91.282C131.197 91.5529 131.945 92.0469 132.497 92.7034C133.049 93.36 133.381 94.1507 133.453 94.9787C134.205 100.083 128.772 108.103 122.129 109.015C117.012 109.744 110.93 102.62 110.203 97.6401C109.396 92.3392 110.796 88.5185 115.889 87.68Z" fill="#AE2E2E"/>
<path fill-rule="evenodd" clip-rule="evenodd" d="M116.703 88.956C117.542 88.8393 119.187 88.7518 119.361 89.9768C119.535 91.2018 116.197 89.1456 113.414 93.3236C111.041 96.9693 115.059 102.854 114.426 102.89C113.793 102.926 112.006 100.389 111.262 96.4225C110.654 93.1851 113.398 89.4227 116.719 88.956H116.703ZM115.462 94.2715C115.826 94.2204 116.047 94.5559 116.094 94.9059C116.142 95.2558 115.683 95.5767 115.304 95.5767C114.924 95.5767 114.861 95.2777 114.805 94.9204C114.75 94.5631 115.114 94.3225 115.478 94.2715H115.462ZM116.727 91.6393C116.905 91.618 117.085 91.6298 117.258 91.6739C117.43 91.7181 117.591 91.7938 117.731 91.8965C117.871 91.9992 117.988 92.1268 118.073 92.2718C118.159 92.4167 118.212 92.576 118.23 92.7403C118.285 93.0703 118.199 93.4072 117.989 93.6795C117.779 93.9518 117.463 94.138 117.107 94.1986C116.929 94.2199 116.749 94.2081 116.576 94.1639C116.404 94.1197 116.243 94.044 116.103 93.9413C115.963 93.8386 115.846 93.711 115.761 93.5661C115.675 93.4211 115.622 93.2618 115.604 93.0976C115.551 92.7678 115.638 92.4318 115.847 92.16C116.057 91.8881 116.372 91.7015 116.727 91.6393Z" fill="#670A0A"/>
<path d="M49.3243 75.9991C43.3535 80.775 38.996 94.4756 35.8802 101.519C32.3135 104.319 25.7812 109.255 20.2928 109.875C8.09814 111.253 4.00953 87.1186 19.0196 83.502L18.7744 82.8458C2.2776 86.8852 6.67464 112.5 20.3561 111.005C25.4728 110.444 31.0403 106.762 34.5911 104.151C32.266 108.978 29.4981 113.441 25.9473 116.744C20.5063 115.701 11.9811 112.989 6.78536 114.556C0.450774 116.503 0.142349 122.861 8.51729 123.955C14.9072 124.845 23.9465 122.438 28.7706 118.231C38.4978 119.996 49.6407 122.023 56.9401 116.219L56.6 115.759C50.2259 121.235 38.5374 119.033 29.506 117.546C33.4602 113.397 37.2246 107.265 39.7869 101.563C44.3737 97.837 56.347 86.9363 58.3399 81.3218C60.4198 75.4959 55.05 71.3325 49.3243 75.9991ZM8.69918 122.898C1.95336 122.169 2.01663 117.145 7.11751 115.57C11.6411 114.214 20.1505 116.481 24.8717 117.451C20.4114 120.769 14.1638 123.481 8.69918 122.898ZM57.2801 80.9718C55.4454 85.6019 45.0301 95.7444 41.1076 98.7266C43.7648 92.4413 47.2524 82.1312 52.1793 77.3261C56.2837 73.2356 58.933 76.6917 57.2485 80.9718H57.2801Z" fill="black"/>
<path d="M85.1729 103.539C84.382 105.581 78.4429 114.294 75.4614 114.33C75.248 114.342 75.0347 114.307 74.8393 114.227C74.6439 114.147 74.4721 114.025 74.3384 113.871C71.9659 111.122 77.0905 102.285 78.6959 99.412L74.9078 98.938L74.1644 100.331C73.1205 97.9464 71.1751 97.2391 67.9959 98.0047C56.9243 100.542 50.7478 121.017 63.1481 117.371C65.6392 116.642 68.0513 114.753 69.8465 112.617C70.0996 115.694 72.6144 117.138 75.3349 115.934C79.6528 114.104 84.7458 106.025 85.7106 103.641L85.1729 103.539ZM69.9572 110.925C68.2253 113.433 65.2517 115.883 63.0532 116.365C56.7265 117.626 61.9381 101.884 68.5891 99.2297C71.2067 98.1724 73.0019 99.1641 73.5318 101.563C72.1399 104.144 70.3843 107.856 69.9572 110.925Z" fill="black"/>
<path d="M158.958 92.6892C157.874 95.0663 153.367 102.62 150.836 102.978C149.99 103.101 149.618 102.897 149.397 102.547C147.412 99.587 151.223 91.1726 152.647 88.3654L149.294 87.8258C148.1 90.2174 144.794 97.3485 145.34 101.723C143.109 103.75 139.187 106.711 138.222 104.888C136.965 102.584 140.982 92.0476 141.963 88.9852L138.475 88.6498C137.305 92.434 131.215 104.859 137.305 106.47C140.231 107.265 143.291 105.056 145.537 102.773C145.781 103.539 146.303 104.203 147.016 104.655C147.52 104.897 148.079 105.027 148.648 105.034C149.216 105.042 149.779 104.927 150.29 104.698C154.07 103.094 158.586 95.1538 159.44 92.7476L158.958 92.6892Z" fill="black"/>
<path d="M175.787 90.2466C175.051 92.2663 169.824 100.812 167.174 100.746C166.968 100.736 166.769 100.672 166.601 100.561C166.432 100.45 166.302 100.296 166.225 100.119C164.707 97.9828 166.842 92.5944 168.598 88.8539C169.998 85.8571 165.102 88.0737 162.121 86.8998C163.703 83.1228 162.793 81.3437 161.48 80.9573C159.575 80.5271 157.756 82.5614 158.009 84.6905C158.179 85.4062 158.529 86.0752 159.03 86.6437C159.531 87.2123 160.17 87.6646 160.895 87.9644C160.255 89.7726 159.314 91.807 158.705 93.2944L159.187 93.4767C159.867 91.858 160.769 90.0133 161.56 88.2487C162.626 88.6604 163.765 88.8878 164.921 88.9195C162.904 93.5278 160.571 100.272 163.853 102.285C164.355 102.528 164.912 102.659 165.479 102.668C166.047 102.677 166.608 102.563 167.119 102.336C170.955 100.71 175.407 92.7184 176.269 90.3705L175.787 90.2466ZM159.322 84.4134C159.179 84.1398 159.127 83.8335 159.172 83.5327C159.217 83.232 159.357 82.9501 159.574 82.7222C159.792 82.4943 160.077 82.3306 160.395 82.2514C160.713 82.1723 161.049 82.1812 161.362 82.277C162.05 82.627 162.382 83.7353 161.362 86.6519C160.456 86.1123 159.756 85.3243 159.361 84.3988L159.322 84.4134Z" fill="black"/>
<path d="M203.735 89.9331C200.769 92.3538 194.972 98.9234 190.291 97.2245C188.954 96.7725 188.709 94.6361 189.144 92.1205C192.457 91.0778 196.696 88.3727 198.144 85.2228C199.504 82.3062 198.215 79.4552 194.474 79.9802C186.099 81.227 181.346 99.1787 189.452 99.3828C196.072 99.5432 203.292 89.7945 208.575 88.5696C213.264 87.4831 215.534 88.0956 219.82 89.255C223.846 90.3414 224.953 92.6528 228.005 92.784C232.173 92.9736 233.976 89.255 233.976 89.255C233.28 89.9331 217.203 85.3686 208.575 87.6217C206.803 88.0877 205.15 88.8733 203.711 89.9331H203.735ZM194.775 81.4677C196.934 80.0094 198.634 82.1458 197.329 84.6322C195.985 87.3227 192.402 89.7362 189.5 90.8591C190.401 87.1477 192.616 82.926 194.775 81.4677Z" fill="black"/>
<path d="M217.139 84.8801C217.563 84.8801 217.906 84.5438 217.906 84.129C217.906 83.7143 217.563 83.378 217.139 83.378C216.716 83.378 216.372 83.7143 216.372 84.129C216.372 84.5438 216.716 84.8801 217.139 84.8801Z" fill="black" stroke="black" stroke-miterlimit="10"/>
<path d="M220.058 94.0729C220.481 94.0729 220.825 93.2618 220.825 92.2612C220.825 91.2606 220.481 90.4494 220.058 90.4494C219.634 90.4494 219.29 91.2606 219.29 92.2612C219.29 93.2618 219.634 94.0729 220.058 94.0729Z" fill="black" stroke="black" stroke-miterlimit="10"/>
</svg>
