<svg id="Capa_1" enable-background="new 0 0 512 512" height="512" viewBox="0 0 512 512" width="512" xmlns="http://www.w3.org/2000/svg"><g><path d="m96 472h320c5.523 0 10-4.477 10-10v-412c0-5.523-4.477-10-10-10h-320c-5.523 0-10 4.477-10 10v412c0 5.523 4.477 10 10 10zm10-412h300v392h-300z"/><path d="m456 0h-400c-5.523 0-10 4.477-10 10v492c0 5.523 4.477 10 10 10h400c5.523 0 10-4.477 10-10v-492c0-5.523-4.477-10-10-10zm-10 492h-380v-472h380z"/><path d="m204.005 180.738h103.989c11.196 0 20.272-9.076 20.272-20.272h-15.404c0-27.99-20.23-51.24-46.863-55.968v-4.328c0-5.523-4.477-10-10-10-5.523 0-10 4.477-10 10v4.328c-26.633 4.728-46.863 27.978-46.863 55.968h-15.404c.001 11.195 9.077 20.272 20.273 20.272z"/><path d="m375 210.738h-222.333c-4.971 0-9 4.029-9 9v12c0 4.97 4.029 9 9 9h222.333c4.971 0 9-4.03 9-9v-12c0-4.971-4.029-9-9-9z"/><path d="m375 260.738h-102.167c-4.971 0-9 4.029-9 9v2c0 4.97 4.029 9 9 9h102.167c4.971 0 9-4.03 9-9v-2c0-4.971-4.029-9-9-9z"/><path d="m375 300.738h-222.333c-4.971 0-9 4.029-9 9v12c0 4.97 4.029 9 9 9h222.333c4.971 0 9-4.03 9-9v-12c0-4.971-4.029-9-9-9z"/><path d="m375 350.738h-102.167c-4.971 0-9 4.029-9 9v2c0 4.97 4.029 9 9 9h102.167c4.971 0 9-4.03 9-9v-2c0-4.971-4.029-9-9-9z"/><path d="m375 390.738h-222.333c-4.971 0-9 4.029-9 9v12c0 4.97 4.029 9 9 9h222.333c4.971 0 9-4.03 9-9v-12c0-4.971-4.029-9-9-9z"/></g></svg>